<svg xmlns="http://www.w3.org/2000/svg" xmlns:xlink="http://www.w3.org/1999/xlink" width="110" height="111" viewBox="0 0 110 111">
    <defs>
        <path id="b" d="M50 100c-13.36 0-25.92-5.2-35.36-14.64C5.2 75.92 0 63.36 0 50s5.2-25.92 14.64-35.36C24.08 5.2 36.64 0 50 0s25.92 5.2 35.36 14.64C94.8 24.08 100 36.64 100 50s-5.2 25.92-14.64 35.36C75.92 94.8 63.36 100 50 100z"/>
        <filter id="a" width="133%" height="133%" x="-16.5%" y="-10.5%" filterUnits="objectBoundingBox">
            <feOffset dy="1" in="SourceAlpha" result="shadowOffsetOuter1"/>
            <feGaussianBlur in="shadowOffsetOuter1" result="shadowBlurOuter1" stdDeviation="2.5"/>
            <feColorMatrix in="shadowBlurOuter1" result="shadowMatrixOuter1" values="0 0 0 0 0 0 0 0 0 0 0 0 0 0 0 0 0 0 0.2 0"/>
            <feOffset dy="3" in="SourceAlpha" result="shadowOffsetOuter2"/>
            <feGaussianBlur in="shadowOffsetOuter2" result="shadowBlurOuter2" stdDeviation="2"/>
            <feColorMatrix in="shadowBlurOuter2" result="shadowMatrixOuter2" values="0 0 0 0 0 0 0 0 0 0 0 0 0 0 0 0 0 0 0.12 0"/>
            <feOffset dy="2" in="SourceAlpha" result="shadowOffsetOuter3"/>
            <feGaussianBlur in="shadowOffsetOuter3" result="shadowBlurOuter3" stdDeviation="2"/>
            <feColorMatrix in="shadowBlurOuter3" result="shadowMatrixOuter3" values="0 0 0 0 0 0 0 0 0 0 0 0 0 0 0 0 0 0 0.14 0"/>
            <feMerge>
                <feMergeNode in="shadowMatrixOuter1"/>
                <feMergeNode in="shadowMatrixOuter2"/>
                <feMergeNode in="shadowMatrixOuter3"/>
            </feMerge>
        </filter>
    </defs>
    <g fill="none" fill-rule="evenodd">
        <g fill-rule="nonzero" transform="translate(5 4)">
            <use fill="#000" filter="url(#a)" xlink:href="#b"/>
            <use fill="#FFF" fill-rule="evenodd" xlink:href="#b"/>
        </g>
        <path fill="#01848F" d="M55 7.2C29.2 7.2 8.2 28.2 8.2 54c0 25.8 21 46.8 46.8 46.8 25.8 0 46.8-21 46.8-46.8 0-25.8-21-46.8-46.8-46.8z"/>
        <path fill="#FFF" fill-rule="nonzero" d="M61.114 34.311c-1.074.076-2 .792-2.356 1.823L46.194 70.756a2.767 2.767 0 0 0 .448 2.696 2.672 2.672 0 0 0 2.524.954 2.704 2.704 0 0 0 2.076-1.742L63.806 38.04a2.768 2.768 0 0 0-.333-2.618 2.677 2.677 0 0 0-2.36-1.112zm-20.67 6.407a2.665 2.665 0 0 0-1.177.398L21.318 52.05a2.742 2.742 0 0 0-1.315 2.349c0 .963.5 1.856 1.315 2.349L39.267 67.68c.828.539 1.88.576 2.744.098a2.74 2.74 0 0 0 1.402-2.397 2.74 2.74 0 0 0-1.398-2.399l-14.078-8.57 14.078-8.599a2.752 2.752 0 0 0 1.234-3.19 2.693 2.693 0 0 0-2.804-1.906zm28.747 0a2.704 2.704 0 0 0-2.477 2.091 2.75 2.75 0 0 0 1.27 3.005l14.08 8.599-14.08 8.57a2.74 2.74 0 0 0-1.397 2.4 2.74 2.74 0 0 0 1.402 2.396 2.658 2.658 0 0 0 2.744-.098l17.949-10.933a2.742 2.742 0 0 0 1.315-2.35c0-.963-.5-1.855-1.315-2.348L70.733 41.116c-.463-.287-1-.426-1.542-.398z"/>
    </g>
</svg>
