<svg xmlns="http://www.w3.org/2000/svg" width="419" height="205" viewBox="0 0 419 205">
    <path fill="#FFF" fill-rule="evenodd" d="M7.582 97.82l9.297-94.882h97.07v7.246H23.58l-8.067 79.843c4.74-3.919 11.006-7.109 18.799-9.57 7.793-2.46 15.426-3.691 22.9-3.691 17.865 0 32.129 5.65 42.793 16.953C110.668 105.02 116 119.969 116 138.563c0 21.601-4.83 38.03-14.492 49.287-9.662 11.256-23.516 16.884-41.563 16.884-17.044 0-30.807-4.876-41.289-14.629C8.174 180.353 2.25 166.863.883 149.637h7.52c1.458 15.586 6.562 27.435 15.312 35.547 8.75 8.112 20.827 12.168 36.23 12.168 16.407 0 28.597-4.945 36.573-14.834 7.975-9.89 11.962-24.45 11.962-43.682 0-16.589-4.625-29.85-13.876-39.785-9.252-9.935-21.67-14.903-37.256-14.903-9.57 0-17.91 1.276-25.02 3.829-7.11 2.552-13.49 6.562-19.14 12.03L7.582 97.82zm257.852 22.97c0 26.705-5.196 47.372-15.586 62.001-10.391 14.629-24.974 21.943-43.75 21.943-18.685 0-33.314-7.382-43.887-22.148s-15.86-35.547-15.86-62.344V84.148c0-26.432 5.219-47.054 15.655-61.865S187.048.066 205.824.066c18.868 0 33.519 7.406 43.955 22.217 10.437 14.811 15.655 35.615 15.655 62.412v36.094zm-7.383-36.642c0-24.153-4.535-42.975-13.604-56.464-9.069-13.49-21.943-20.235-38.623-20.235-16.77 0-29.645 6.768-38.623 20.303-8.978 13.535-13.467 32.562-13.467 57.08v35.684c0 24.062 4.603 42.884 13.809 56.464 9.206 13.581 22.057 20.372 38.555 20.372 16.588 0 29.394-6.79 38.418-20.372 9.023-13.58 13.535-32.63 13.535-57.148V84.148zm160.644 36.641c0 26.706-5.195 47.373-15.586 62.002-10.39 14.629-24.973 21.943-43.75 21.943-18.685 0-33.313-7.382-43.886-22.148s-15.86-35.547-15.86-62.344V84.148c0-26.432 5.218-47.054 15.655-61.865C325.704 7.472 340.31.066 359.086.066c18.867 0 33.519 7.406 43.955 22.217s15.654 35.615 15.654 62.412v36.094zm-7.382-36.64c0-24.154-4.535-42.976-13.604-56.465-9.07-13.49-21.943-20.235-38.623-20.235-16.771 0-29.645 6.768-38.623 20.303-8.978 13.535-13.467 32.562-13.467 57.08v35.684c0 24.062 4.603 42.884 13.809 56.464 9.205 13.581 22.057 20.372 38.554 20.372 16.589 0 29.395-6.79 38.418-20.372 9.024-13.58 13.536-32.63 13.536-57.148V84.148z" opacity=".5"/>
</svg>
