<svg xmlns="http://www.w3.org/2000/svg" width="38" height="38" viewBox="0 0 38 38">
    <path fill="#ED3C76" fill-rule="nonzero" d="M38 19C38 8.507 29.493 0 19 0S0 8.507 0 19s8.507 19 19 19 19-8.507 19-19zM19 35.286c-8.994 0-16.286-7.292-16.286-16.286 0-8.994 7.292-16.286 16.286-16.286 8.994 0 16.286 7.292 16.286 16.286 0 8.994-7.292 16.286-16.286 16.286zm0-9.5a6.786 6.786 0 1 0 0-13.572 6.786 6.786 0 0 0 0 13.572zm0-2.715a4.071 4.071 0 1 1 0-8.142 4.071 4.071 0 0 1 0 8.142zM17.236 8.84l2.671-.479-.478-2.672-2.672.479.479 2.672zM8.363 10.24l1.483 2.274 2.273-1.483-1.482-2.273-2.274 1.482zM5.87 19.645l2.567-.881-.88-2.567-2.568.88.88 2.568zm1.66 6.672l2.42 1.229 1.228-2.42-2.42-1.229-1.229 2.42zm7.623 5.557l2.677-.446-.446-2.677-2.678.446.447 2.677zm7.312-.803l2.428 1.214 1.214-2.428-2.428-1.214-1.214 2.428zm6.492-4.948l2.596-.793-.794-2.596-2.595.794.793 2.595zm.472-8.55l2.575.859.858-2.575-2.575-.859-.858 2.575zm-3.383-6.33l2.54-.959-.959-2.539-2.54.959.96 2.54z"/>
</svg>
