<svg xmlns="http://www.w3.org/2000/svg" width="25" height="30" viewBox="0 0 25 30">
    <path fill="#A06BFF" fill-rule="nonzero" d="M15.225 11.093l.52 1.93a3 3 0 0 1 3.67 2.12l1.94-.52a5 5 0 0 0-6.13-3.53zm0 0l.52 1.93a3 3 0 0 1 3.67 2.12l1.94-.52a5 5 0 0 0-6.13-3.53zm4.33-3a8 8 0 0 0-6 0 5 5 0 0 1 4.93-4.07v-2a7 7 0 0 0-5.06 2.17 4.74 4.74 0 0 0-4.69-4.17h-2.25v2.25a4.75 4.75 0 0 0 4.75 4.75h.54a7.38 7.38 0 0 0-.22 1.06 8 8 0 0 0-10.3 10.45l3 7.44a5 5 0 0 0 6.51 2.76l1.85-.71 1.84.74a5 5 0 0 0 1.87.37 5 5 0 0 0 4.64-3.11l3-7.44a8 8 0 0 0-4.41-10.47v-.02zm-8.07-3.07h-.25a2.75 2.75 0 0 1-2.75-2.75v-.25h.25a2.75 2.75 0 0 1 2.75 2.75v.25zm10.63 12.76l-3 7.44a3 3 0 0 1-3.9 1.66l-2.59-1-2.6 1a3 3 0 0 1-3.9-1.66l-3-7.44a6 6 0 0 1 8.94-7.21l.57.38.56-.38a6 6 0 0 1 8.94 7.21h-.02zm-6.89-6.69l.52 1.93a3 3 0 0 1 3.67 2.12l1.94-.52a5 5 0 0 0-6.13-3.53zm0 0l.52 1.93a3 3 0 0 1 3.67 2.12l1.94-.52a5 5 0 0 0-6.13-3.53zm0 0l.52 1.93a3 3 0 0 1 3.67 2.12l1.94-.52a5 5 0 0 0-6.13-3.53z"/>
</svg>
