<svg xmlns="http://www.w3.org/2000/svg" width="27" height="36" viewBox="0 0 27 36">
    <path fill="#E91E63" fill-rule="nonzero" d="M25.875 11.25H1.125A1.125 1.125 0 0 1 0 10.125v-4.5C0 5.004.504 4.5 1.125 4.5H4.5V1.125C4.5.504 5.004 0 5.625 0h15.75c.621 0 1.125.504 1.125 1.125V4.5h3.375c.621 0 1.125.504 1.125 1.125v4.5c0 .621-.504 1.125-1.125 1.125zM4.286 33.986L2.25 14.625h22.5l-2.036 19.361A2.25 2.25 0 0 1 20.464 36H6.525a2.25 2.25 0 0 1-2.239-2.014zm2.965-14.861L8.55 31.5h9.9l1.305-12.375H7.251z"/>
</svg>
