<svg xmlns="http://www.w3.org/2000/svg" width="446" height="205" viewBox="0 0 446 205">
    <path fill="#FFF" fill-rule="evenodd" d="M104.117 140.34h34.453v7.383h-34.453V202h-7.383v-54.277H.211v-4.102L95.23 2.937h8.886V140.34zm-92.422 0h85.04V11.824L85.25 30.691 11.695 140.34zm266.739-19.55c0 26.705-5.196 47.372-15.586 62.001-10.391 14.629-24.974 21.943-43.75 21.943-18.685 0-33.314-7.382-43.887-22.148s-15.86-35.547-15.86-62.344V84.148c0-26.432 5.219-47.054 15.655-61.865S200.048.066 218.824.066c18.868 0 33.519 7.406 43.955 22.217 10.437 14.811 15.655 35.615 15.655 62.412v36.094zm-7.383-36.642c0-24.153-4.535-42.975-13.604-56.464-9.069-13.49-21.943-20.235-38.623-20.235-16.77 0-29.645 6.768-38.623 20.303-8.978 13.535-13.467 32.562-13.467 57.08v35.684c0 24.062 4.603 42.884 13.809 56.464 9.206 13.581 22.057 20.372 38.555 20.372 16.588 0 29.394-6.79 38.418-20.372 9.023-13.58 13.535-32.63 13.535-57.148V84.148zm139.59 56.192h34.453v7.383H410.64V202h-7.383v-54.277h-96.524v-4.102l95.02-140.684h8.887V140.34zm-92.422 0h85.039V11.824l-11.485 18.867L318.22 140.34z" opacity=".5"/>
</svg>
