<svg xmlns="http://www.w3.org/2000/svg" width="47" height="44" viewBox="0 0 47 44">
    <path fill="#ED3C76" fill-rule="nonzero" d="M15.537 6.77H9.583l-.479.876L3.564 17.8l-.63 1.156A8.465 8.465 0 0 0 0 25.385v10.153h3.357v2.539C3.357 41.36 5.983 44 9.232 44c3.256 0 5.875-2.647 5.875-5.923v-2.539h16.786v2.539c0 3.283 2.626 5.923 5.875 5.923 3.256 0 5.875-2.647 5.875-5.923v-2.539H47V25.385a8.471 8.471 0 0 0-2.925-6.412l-.64-1.173-5.54-10.154-.478-.877h-5.954L29.45 0H17.55l-2.014 6.77zM26.953 3.39l1.012 3.378h-8.908l1.002-3.384 6.894.006zm8.498 6.763l3.677 6.77H7.89l3.668-6.77H35.45zm-.201 25.384h5.036v2.539a2.518 2.518 0 1 1-5.036 0v-2.539zm-28.536 0h5.036v2.539a2.518 2.518 0 1 1-5.036 0v-2.539zm1.688-15.23h30.196c2.781 0 5.045 2.282 5.045 5.077v6.769H3.357v-6.77c0-2.807 2.252-5.076 5.045-5.076zm1.67 8.461c1.854 0 3.357-1.515 3.357-3.384 0-1.87-1.503-3.385-3.358-3.385-1.854 0-3.357 1.515-3.357 3.385 0 1.869 1.503 3.384 3.357 3.384zm26.857 0c1.854 0 3.357-1.515 3.357-3.384 0-1.87-1.503-3.385-3.357-3.385-1.855 0-3.358 1.515-3.358 3.385 0 1.869 1.503 3.384 3.358 3.384z"/>
</svg>
