<?xml version="1.0" encoding="UTF-8"?>
<svg width="386px" height="205px" viewBox="0 0 386 205" version="1.1" xmlns="http://www.w3.org/2000/svg" xmlns:xlink="http://www.w3.org/1999/xlink">
    <!-- Generator: Sketch 46.2 (44496) - http://www.bohemiancoding.com/sketch -->
    <title>401</title>
    <desc>Created with Sketch.</desc>
    <defs></defs>
    <g id="Default-Pages" stroke="none" stroke-width="1" fill="none" fill-rule="evenodd" opacity="0.5">
        <g id="access" transform="translate(-502.000000, -293.000000)" fill="#FFFFFF">
            <g id="box" transform="translate(438.000000, 256.000000)">
                <g id="header">
                    <path d="M168.117188,177.339844 L202.570312,177.339844 L202.570312,184.722656 L168.117188,184.722656 L168.117188,239 L160.734375,239 L160.734375,184.722656 L64.2109375,184.722656 L64.2109375,180.621094 L159.230469,39.9375 L168.117188,39.9375 L168.117188,177.339844 Z M75.6953125,177.339844 L160.734375,177.339844 L160.734375,48.8242188 L149.25,67.6914062 L75.6953125,177.339844 Z M342.433594,157.789062 C342.433594,184.494925 337.238333,205.162036 326.847656,219.791016 C316.456979,234.419995 301.873792,241.734375 283.097656,241.734375 C264.412667,241.734375 249.783907,234.351636 239.210938,219.585938 C228.637968,204.820239 223.351562,184.039196 223.351562,157.242188 L223.351562,121.148438 C223.351562,94.7160137 228.569609,74.0944751 239.005859,59.2832031 C249.442109,44.4719312 264.048083,37.0664062 282.824219,37.0664062 C301.691501,37.0664062 316.343047,44.4719312 326.779297,59.2832031 C337.215547,74.0944751 342.433594,94.8983035 342.433594,121.695312 L342.433594,157.789062 Z M335.050781,121.148438 C335.050781,96.9946709 330.516321,78.1732445 321.447266,64.6835938 C312.37821,51.193943 299.50399,44.4492188 282.824219,44.4492188 C266.053302,44.4492188 253.179081,51.2167292 244.201172,64.7519531 C235.223262,78.2871771 230.734375,97.3136795 230.734375,121.832031 L230.734375,157.515625 C230.734375,181.578245 235.337194,200.399672 244.542969,213.980469 C253.748744,227.561266 266.600178,234.351562 283.097656,234.351562 C299.686281,234.351562 312.492142,227.561266 321.515625,213.980469 C330.539108,200.399672 335.050781,181.350383 335.050781,156.832031 L335.050781,121.148438 Z M449.621094,239 L442.238281,239 L442.238281,49.234375 L385.089844,70.6992188 L385.089844,62.6328125 L448.117188,39.390625 L449.621094,39.390625 L449.621094,239 Z" id="401"></path>
                </g>
            </g>
        </g>
    </g>
</svg>