<svg xmlns="http://www.w3.org/2000/svg" width="33" height="41" viewBox="0 0 33 41">
    <path fill="#06BBD3" fill-rule="nonzero" d="M20.094 15.592l.719 2.718c2.208-.6 4.476.735 5.069 2.986l2.68-.733a7.026 7.026 0 0 0-3.224-4.275 6.79 6.79 0 0 0-5.244-.696zm0 0l.719 2.718c2.208-.6 4.476.735 5.069 2.986l2.68-.733a7.026 7.026 0 0 0-3.224-4.275 6.79 6.79 0 0 0-5.244-.696zm5.981-4.226a10.852 10.852 0 0 0-8.287 0c.619-3.334 3.481-5.744 6.81-5.732V2.817a9.58 9.58 0 0 0-6.99 3.056C17.211 2.53 14.433.011 11.13 0H8.022v3.169c0 3.695 2.938 6.69 6.561 6.69h.746c-.137.49-.238.989-.304 1.493-4.104-1.614-8.757-.591-11.845 2.604C.092 17.15-.843 21.909.8 26.07l4.143 10.48c1.43 3.605 5.456 5.345 8.992 3.887l2.555-1 2.542 1.042a6.79 6.79 0 0 0 2.583.521c2.811.006 5.346-1.726 6.409-4.38l4.143-10.48a11.473 11.473 0 0 0-.032-8.666 11.156 11.156 0 0 0-6.059-6.08v-.028zM14.93 7.042h-.346a3.762 3.762 0 0 1-2.686-1.134 3.912 3.912 0 0 1-1.112-2.739v-.352h.345c2.098 0 3.799 1.734 3.799 3.873v.352zM29.61 25.014l-4.144 10.479c-.856 2.16-3.266 3.207-5.386 2.338l-3.578-1.408-3.591 1.408c-2.12.869-4.53-.177-5.387-2.338L3.382 25.014c-1.37-3.452-.364-7.411 2.479-9.75a8.16 8.16 0 0 1 9.869-.405l.787.535.774-.535a8.16 8.16 0 0 1 9.869.406c2.842 2.338 3.85 6.297 2.479 9.75h-.028zm-9.517-9.422l.719 2.718c2.208-.6 4.476.735 5.069 2.986l2.68-.733a7.026 7.026 0 0 0-3.224-4.275 6.79 6.79 0 0 0-5.244-.696zm0 0l.719 2.718c2.208-.6 4.476.735 5.069 2.986l2.68-.733a7.026 7.026 0 0 0-3.224-4.275 6.79 6.79 0 0 0-5.244-.696zm0 0l.719 2.718c2.208-.6 4.476.735 5.069 2.986l2.68-.733a7.026 7.026 0 0 0-3.224-4.275 6.79 6.79 0 0 0-5.244-.696z"/>
</svg>
