<?xml version="1.0" encoding="UTF-8"?>
<svg width="307px" height="80px" viewBox="0 0 307 80" version="1.1" xmlns="http://www.w3.org/2000/svg" xmlns:xlink="http://www.w3.org/1999/xlink">
    <!-- Generator: Sketch 58 (84663) - https://sketch.com -->
    <title>Axon Ivy Logo</title>
    <desc>Created with Sketch.</desc>
    <g id="™-Logo" stroke="none" stroke-width="1" fill="none" fill-rule="evenodd">
        <g id="Logo" transform="translate(-449.000000, -1469.000000)">
            <g id="01-Navigation-/-01-Logo-/-Complete" transform="translate(449.000000, 1469.000000)">
                <g id="Logo">
                    <path d="M88.8088889,66.9 L90.6800075,72.1 C90.8441407,72.6 91.0082739,73.1694444 91.1724071,73.6347222 L91.2704762,73.899 C91.4678469,73.4 91.5663268,72.7 91.8617666,72.1 L93.5359253,66.9 L95.210084,66.9 L92.8465658,73.2 C91.7632866,76.2 90.9754472,77.8 89.8921681,78.7 C89.1043287,79.4 88.3164893,79.6 87.9225696,79.7 L87.5286499,78.4 C87.9225696,78.3 88.4149692,78 88.9073688,77.6 C89.3012885,77.3 89.8921681,76.6 90.1876078,75.8 C90.2696744,75.6333333 90.2833522,75.5361111 90.2856318,75.450463 L90.2860878,75.4 C90.2860878,75.3 90.2860878,75.2 90.1876078,75 L87.0362502,66.9 L88.8088889,66.9 Z M21.1531802,66.7 C22.5526318,66.7 23.3333784,67.4180055 23.7466237,68.0887739 L23.8121382,68.2 L23.9106181,66.9 L25.2893371,66.9 C25.2087626,67.3909091 25.1941127,67.9487603 25.1914491,68.7378663 L25.1908571,74.4 L25.2893371,74.4 C25.2893371,76.4 24.8954174,77.7 24.009098,78.4 C23.1227787,79.2 21.9410196,79.5 20.8577404,79.5 C19.7744613,79.5 18.6911821,79.2 18.0018226,78.8 L18.3957423,77.6 C18.9866218,78 19.8729412,78.3 20.9562204,78.3 C22.5318992,78.3 23.7136583,77.4 23.7136583,75.2 L23.7136583,74.2 C23.2212586,75 22.3349393,75.7 20.9562204,75.7 C18.789662,75.7 17.2139832,73.8 17.2139832,71.4 C17.2139832,68.4 19.0851018,66.7 21.1531802,66.7 Z M8.15383007,62.8 L8.15383007,73.4 C8.15383007,74.2 8.15383007,75.1 8.25230999,75.7 L6.87359104,75.7 L6.77511111,74.2 C6.28271148,75.2 5.29791223,75.9 3.82071335,75.9 C1.75263492,75.9 0.0784761905,74.1 0.0784761905,71.4 C0.0784761905,68.5 1.85111485,66.7 4.0176732,66.7 C5.31529104,66.7 6.17673482,67.2314879 6.60200453,67.8776104 L6.67663119,68 L6.67663119,62.8 L8.15383007,62.8 Z M134.602054,62.8 L134.602054,68.3 C135.192934,67.3 136.177733,66.7 137.556452,66.7 C139.72301,66.7 141.200209,68.5 141.200209,71.2 C141.200209,74.4 139.230611,75.9 137.261012,75.9 C136.051897,75.9 135.106308,75.4540123 134.507205,74.3935528 L134.405094,74.2 L134.306614,75.7 L132.927895,75.7 C133.014065,75.175 133.024837,74.4203125 133.026183,73.7039062 L133.026375,62.8 L134.602054,62.8 Z M101.611279,66.7 C104.073277,66.7 105.747436,68.5 105.747436,71.2 C105.747436,74.5 103.482398,75.9 101.414319,75.9 C99.0508011,75.9 97.2781625,74.2 97.2781625,71.4 C97.2781625,68.5 99.149281,66.7 101.611279,66.7 Z M44.9853221,66.7 C47.6442801,66.7 48.3336396,68.5 48.3336396,70.3 L48.3336396,73.6 C48.3336396,74.4 48.3336396,75.1 48.4321195,75.7 L47.0534006,75.7 L46.9549206,74.6 L46.8564407,74.6 C46.3640411,75.3 45.4777218,75.9 44.1974827,75.9 C42.4248441,75.9 41.5385247,74.6 41.5385247,73.4 C41.5385247,71.3 43.4096433,70.1 46.7579608,70.1 L46.7579608,69.9 C46.7579608,69.2 46.5610009,67.8 44.7883623,67.9 C44.0005229,67.9 43.1142035,68.1 42.523324,68.6 L42.1294043,67.5 C42.8187638,67 43.902043,66.7 44.9853221,66.7 Z M146.321165,66.8 L146.321165,71.7 C146.321165,73.4 146.813565,74.5 148.290764,74.5 C149.374043,74.5 150.063402,73.8 150.358842,73 C150.440909,72.8333333 150.454587,72.5972222 150.456866,72.349537 L150.457322,66.8 L152.033001,66.8 L152.033001,73.3 L151.934521,73.3 C151.934521,74.2 151.934521,75 152.033001,75.7 L150.654282,75.7 L150.555802,74.3 C150.161882,75 149.275563,75.9 147.699884,75.9 C146.321165,75.9 144.745486,75.1 144.745486,72 L144.745486,66.8 L146.321165,66.8 Z M110.868392,66.8 L110.868392,71.7 C110.868392,73.4 111.360792,74.5 112.837991,74.5 C113.92127,74.5 114.610629,73.8 114.906069,73 C115.004549,72.8 115.004549,72.5 115.004549,72.2 L115.004549,66.8 L116.580228,66.8 L116.580228,73.3 L116.481748,73.3 C116.481748,74.2 116.481748,75 116.580228,75.7 L115.201509,75.7 L115.103029,74.3 C114.709109,75 113.82279,75.9 112.247111,75.9 C110.868392,75.9 109.292713,75.1 109.292713,72 L109.292713,66.8 L110.868392,66.8 Z M36.7130084,64.8 L36.7130084,66.9 L38.9780467,66.9 L38.9780467,68.1 L36.7130084,68.1 L36.7130084,72.8 C36.7130084,73.9 37.0084482,74.5 37.8947675,74.5 C38.2886872,74.5 38.584127,74.5 38.7810868,74.4 L38.8795668,75.6 C38.584127,75.7 38.0917274,75.8 37.5008478,75.8 C36.8114883,75.8 36.2206088,75.5 35.8266891,75.1 C35.4327694,74.6 35.2358095,73.8 35.2358095,72.8 L35.2358095,68 L33.8570906,68 L33.8570906,66.8 L35.2358095,66.8 L35.2358095,65.2 L36.7130084,64.8 Z M76.1049785,66.6 C78.9608964,66.6 79.6502558,69.1 79.6502558,70.8 C79.6502558,71.1 79.6502558,71.4 79.5517759,71.5 L73.4460205,71.5 L73.4460205,71.6 C73.4460205,73.7 74.8247395,74.6 76.4004183,74.6 C77.4836975,74.6 78.2715369,74.4 78.7639365,74.1 L79.0593763,75.2 C78.4684967,75.5 77.5821774,75.8 76.2034585,75.8 C73.5445005,75.8 71.9688217,74 71.9688217,71.4 C71.9688217,68.7 73.5445005,66.6 76.1049785,66.6 Z M185.023776,66.6 C187.879694,66.6 188.569053,69.1 188.569053,70.8 C188.569053,71.1 188.569053,71.4 188.470573,71.5 L182.364818,71.5 L182.364818,71.6 C182.364818,73.7 183.743537,74.6 185.319216,74.6 C186.402495,74.6 187.190334,74.4 187.682734,74.1 L187.978174,75.2 C187.387294,75.5 186.500975,75.8 185.122256,75.8 C182.463298,75.8 180.887619,74 180.887619,71.4 C180.887619,68.7 182.463298,66.6 185.023776,66.6 Z M174.387944,66.7 C175.569703,66.7 177.440822,67.4 177.440822,70.5 L177.440822,75.8 L175.865143,75.8 L175.865143,70.7 C175.865143,69.3 175.372743,68.1 173.895544,68.1 C172.910745,68.1 172.024426,68.8 171.827466,69.7 C171.728986,69.9 171.728986,70.2 171.728986,70.4 L171.728986,75.7 L170.153307,75.7 L170.153307,69.3 C170.153307,68.4 170.153307,67.6 170.054827,66.9 L171.433546,66.9 L171.532026,68.3 C171.925946,67.5 173.009225,66.7 174.387944,66.7 Z M203.045602,66.7 C203.931922,66.7 204.719761,66.9 205.113681,67.2 L204.719761,68.3 C204.424321,68.1 203.734962,67.8 202.947122,67.8 C202.060803,67.8 201.469923,68.3 201.469923,69 C201.469923,69.7 201.962323,70.1 203.144082,70.5 C204.621281,71.1 205.40912,71.8 205.40912,73.1 C205.40912,74.7 204.227361,75.8 202.159283,75.8 C201.174484,75.8 200.288164,75.5 199.697285,75.2 L200.189684,74.1 C200.682084,74.4 201.469923,74.7 202.257763,74.7 C203.341042,74.7 203.931922,74.1 203.931922,73.4 C203.931922,72.6 203.439522,72.2 202.356243,71.8 C200.780564,71.2 200.091204,70.3 200.091204,69.3 C200.091204,67.9 201.272964,66.7 203.045602,66.7 Z M158.631156,66.7 C159.517475,66.7 160.305315,66.9 160.699234,67.2 L160.305315,68.3 C160.009875,68.1 159.320515,67.8 158.532676,67.8 C157.646357,67.8 157.055477,68.3 157.055477,69 C157.055477,69.7 157.547877,70.1 158.729636,70.5 C160.206835,71.1 160.994674,71.8 160.994674,73.1 C160.994674,74.7 159.812915,75.8 157.744837,75.8 C156.760037,75.8 155.873718,75.5 155.282838,75.2 L155.775238,74.1 C156.267638,74.4 157.055477,74.7 157.843317,74.7 C158.926596,74.7 159.517475,74.1 159.517475,73.4 C159.517475,72.6 159.025076,72.2 157.941796,71.8 C156.366118,71.2 155.676758,70.3 155.676758,69.3 C155.676758,67.9 156.858517,66.7 158.631156,66.7 Z M194.576329,66.7 C195.462648,66.7 196.250487,66.9 196.644407,67.2 L196.250487,68.3 C195.955048,68.1 195.265688,67.8 194.477849,67.8 C193.591529,67.8 193.00065,68.3 193.00065,69 C193.00065,69.7 193.493049,70.1 194.674809,70.5 C196.152007,71.1 196.939847,71.8 196.939847,73.1 C196.939847,74.7 195.758088,75.8 193.690009,75.8 C192.70521,75.8 191.818891,75.5 191.228011,75.2 L191.720411,74.1 C192.21281,74.4 193.00065,74.7 193.788489,74.7 C194.871768,74.7 195.462648,74.1 195.462648,73.4 C195.462648,72.6 194.970248,72.2 193.886969,71.8 C192.31129,71.2 191.621931,70.3 191.621931,69.3 C191.621931,67.9 192.80369,66.7 194.576329,66.7 Z M30.8042129,66.9 L30.8042129,75.7 L29.2285341,75.7 L29.2285341,66.9 L30.8042129,66.9 Z M59.5603511,66.9 L59.5603511,75.7 L57.9846723,75.7 L57.9846723,66.9 L59.5603511,66.9 Z M166.01715,66.9 L166.01715,75.7 L164.441472,75.7 L164.441472,66.9 L166.01715,66.9 Z M13.8656657,66.9 L13.8656657,75.7 L12.2899869,75.7 L12.2899869,66.9 L13.8656657,66.9 Z M53.8485154,62.8 L53.8485154,75.7 L52.2728366,75.7 L52.2728366,62.8 L53.8485154,62.8 Z M69.6053035,66.9 L69.6053035,67.9 L65.6661064,73 C65.3706667,73.375 65.1306218,73.69375 64.8628796,74.040625 L64.5828273,74.4 L69.7037834,74.4 L69.7037834,75.7 L62.6132288,75.7 L62.6132288,74.8 L66.5524258,69.6 C66.8806922,69.1833333 67.1405698,68.8361111 67.5030306,68.4425926 L67.7341849,68.2 L63.0071485,68.2 L63.0071485,66.9 L69.6053035,66.9 Z M124.852542,66.8 L124.852542,68.3 L124.360142,68.3 C123.276863,68.3 122.489023,69.2 122.292063,70.3 C122.292063,70.5 122.193584,70.8 122.193584,71 L122.193584,75.7 L120.617905,75.7 L120.617905,69.7 L120.519425,69.7 C120.519425,68.7 120.519425,67.8 120.420945,67 L121.799664,67 L121.898144,68.7 L121.996624,68.7 C122.390543,67.5 123.375343,66.8 124.458622,66.8 L124.852542,66.8 Z M137.162532,68 C136.079253,68 135.094454,68.8 134.799014,70 C134.716947,70.1666667 134.70327,70.3333333 134.70099,70.5578704 L134.700534,72.2 L134.602054,72.2 C134.602054,72.4 134.602054,72.6 134.700534,72.8 C134.995974,73.9 135.980773,74.7 137.064052,74.7 C138.738211,74.7 139.72301,73.3 139.72301,71.3 C139.72301,69.5 138.836691,68 137.162532,68 Z M4.21463305,68 C2.54047432,68 1.654155,69.5 1.654155,71.4 C1.654155,73.2 2.54047432,74.7 4.21463305,74.7 C5.29791223,74.7 6.28271148,74 6.47967134,72.8 C6.56173794,72.6333333 6.57541571,72.4666667 6.57769533,72.2421296 L6.57815126,70.5 C6.57815126,70.3 6.57815126,70 6.47967134,69.8 C6.28271148,68.8 5.39639216,68 4.21463305,68 Z M46.8564407,71.2 L46.7579608,71.2 C45.0838021,71.2 43.1142035,71.5 43.1142035,73.2 C43.1142035,74.3 43.803563,74.7 44.5914024,74.7 C45.7731615,74.7 46.462521,74 46.7579608,73.2 C46.8367447,73.04 46.8525015,72.944 46.8556529,72.8096 L46.8564407,71.2 Z M101.611279,67.9 C99.7401606,67.9 98.9523212,69.6 98.9523212,71.3 C98.8538413,73.3 99.9371204,74.7 101.512799,74.7 C102.989998,74.7 104.171757,73.3 104.171757,71.3 C104.171757,69.8 103.482398,67.9 101.611279,67.9 Z M21.44862,68 C19.8729412,68 18.8881419,69.3 18.8881419,71.3 C18.8881419,73 19.7744613,74.5 21.44862,74.5 C22.4334192,74.5 23.3197386,73.9 23.6151783,72.8 C23.7136583,72.5 23.7136583,72.2 23.7136583,71.9 L23.7136583,70.4 C23.7136583,70.1 23.7136583,69.9 23.6151783,69.7 C23.3197386,68.8 22.5318992,68 21.44862,68 Z M75.9080187,67.9 C74.3323399,67.9 73.6429804,69.4 73.4460205,70.5 L78.074577,70.5 C78.074577,69.5 77.6806573,67.9 75.9080187,67.9 Z M184.826816,67.9 C183.251137,67.9 182.561778,69.4 182.364818,70.5 L186.993374,70.5 C186.993374,69.5 186.599455,67.9 184.826816,67.9 Z M12.9793464,63.4 C13.570226,63.4 13.9641457,63.8 13.9641457,64.4 C13.9641457,65 13.6687059,65.4 12.9793464,65.4 C12.3884669,65.4 11.9945472,64.9 11.9945472,64.4 C11.9945472,63.8 12.3884669,63.4 12.9793464,63.4 Z M30.0163735,63.4 C30.607253,63.4 31.0011727,63.8 31.0011727,64.4 C31.0011727,65 30.607253,65.4 30.0163735,65.4 C29.4254939,65.4 29.0315742,64.9 29.0315742,64.4 C29.0315742,63.8 29.4254939,63.4 30.0163735,63.4 Z M58.6740317,63.4 C59.2649113,63.4 59.658831,63.8 59.658831,64.4 C59.658831,65 59.3633912,65.4 58.6740317,65.4 C58.0831522,65.4 57.6892325,64.9 57.6892325,64.4 C57.6892325,63.8 58.0831522,63.4 58.6740317,63.4 Z M165.229311,63.4 C165.82019,63.4 166.21411,63.8 166.21411,64.4 C166.21411,65 165.82019,65.4 165.229311,65.4 C164.638431,65.4 164.244512,64.9 164.244512,64.4 C164.244512,63.8 164.638431,63.4 165.229311,63.4 Z" id="Subline" fill="#FFFFFF"></path>
                    <path d="M232.84131,1 L238.93199,20.9647577 C240.602015,26.4889868 242.173804,31.6255507 243.254408,36.9559471 L243.352645,36.9559471 C244.531486,31.722467 246.201511,26.3920705 247.871537,21.061674 L254.355164,1 L263,1 L247.7733,45 L238.440806,45 L224,1 L232.84131,1 Z M279.348404,1 L284.662234,12.2422907 C286.138298,15.5374449 287.319149,17.9603524 288.598404,20.9647577 L288.696809,20.9647577 C289.779255,18.154185 291.058511,15.4405286 292.534574,12.2422907 L297.848404,1 L307,1 L292.140957,26.3920705 L292.140957,44.9030837 L284.170213,44.9030837 L284.170213,26.6828194 L270,1 L279.348404,1 Z M213.60499,12.9130435 L213.60499,44.9021739 L205.48892,44.9021739 L205.48892,12.9130435 L213.60499,12.9130435 Z M209.498063,0 C212.236014,0 213.996126,1.85869565 213.996126,4.40217391 C214.09391,6.75 212.333798,8.70652174 209.498063,8.70652174 C206.760112,8.70652174 205,6.75 205,4.40217391 C205,1.85869565 206.857896,0 209.498063,0 Z" id="IVY" fill="#C7D426"></path>
                    <path d="M110.746988,0 C122.99759,0 130.901205,9.23931624 131,22.6068376 C131,37.6895299 121.80123,45.8361299 110.593255,45.9975536 L110.253012,46 L110.154217,46 C98.2,46 90,36.8589744 90,23.3931624 C90,9.23931624 98.7927711,0 110.746988,0 Z M54.3209169,1 L60.3381089,11.2958057 C61.9293219,14.0154525 63.171092,16.1428207 64.3080293,18.3096741 L64.5501433,18.7748344 L64.7507163,18.7748344 C65.9613181,16.3396405 66.9989767,14.4069469 68.5060523,11.8880029 L68.8624642,11.2958057 L74.9799427,1 L81.7994269,1 L67.9598854,22.3686534 L82,45 L75.1805158,45 L69.3638968,35.2869757 C67.0616669,31.7565025 65.6769923,29.3813101 64.3322115,26.9713433 L64.1489971,26.6423841 L64.0487106,26.6423841 C62.7971347,29.066755 61.5455587,31.3120954 59.4067117,34.9252285 L59.1346705,35.384106 L53.7191977,45 L47,45 L60.8395415,22.7571744 L47.5014327,1 L54.3209169,1 Z M151.211765,1 L165.188235,23.2428256 C168.202768,28.0879107 170.701445,32.4167602 172.684266,36.715243 L173.05,37.5209713 L173.244118,37.4238411 C172.689496,31.8735415 172.57505,26.7637418 172.565408,20.4163471 L172.564706,19.4547461 L172.661765,19.4547461 L172.661765,1 L178,1 L178,44.9028698 L172.273529,44.9028698 L158.297059,22.5629139 C155.385294,18.0099338 152.644141,13.2862169 150.553442,8.79192751 L150.144118,7.89624724 L149.95,7.99337748 C150.229977,13.3168619 150.330482,18.4607417 150.337799,25.3246822 L150.338235,26.1567329 L150.338235,45 L145,45 L145,1 L151.211765,1 Z M21.9656992,1 L37,45 L30.9472296,45 L26.4564644,31.5960265 L24.8944591,26.7395143 L20.5989446,14.0154525 C19.6226913,11.1015453 19.0369393,8.4790287 18.353562,5.95364238 L18.353562,5.95364238 L18.1583113,5.95364238 C17.5725594,8.4790287 16.8891821,11.1986755 16.0105541,13.9183223 L16.0105541,13.9183223 L11.7150396,27.1280353 L10.2506596,31.4988962 L5.85751979,45 L0,45 L15.0343008,1 L21.9656992,1 Z M110.450602,4.61965812 C100.768675,4.61965812 96.026506,13.5641026 96.026506,23.1965812 C96.026506,32.4243338 101.043688,40.9801461 110.02921,41.1801821 L110.351807,41.1837607 L110.670712,41.1803822 C119.660809,40.9892261 124.774755,32.7113397 124.677108,22.7051282 C124.677108,13.8589744 120.033735,4.61965812 110.450602,4.61965812 Z" id="AXON" fill="#FFFFFF"></path>
                </g>
            </g>
        </g>
    </g>
</svg>