<?xml version="1.0" encoding="UTF-8"?>
<svg width="30px" height="30px" viewBox="0 0 30 30" version="1.1" xmlns="http://www.w3.org/2000/svg" xmlns:xlink="http://www.w3.org/1999/xlink">
    <!-- Generator: Sketch 46.2 (44496) - http://www.bohemiancoding.com/sketch -->
    <title>icon-twitter</title>
    <desc>Created with Sketch.</desc>
    <defs></defs>
    <g id="Default-Pages" stroke="none" stroke-width="1" fill="none" fill-rule="evenodd">
        <g id="landing-without-slider" transform="translate(-925.000000, -2914.000000)" fill="#FFFFFF">
            <g id="footer" transform="translate(0.000000, 2845.000000)">
                <g id="social" transform="translate(925.000000, 32.000000)">
                    <path d="M27,37 L3,37 C1.35,37 0,38.35 0,40 L0,64 C0,65.65 1.35,67 3,67 L27,67 C28.65,67 30,65.65 30,64 L30,40 C30,38.35 28.65,37 27,37 L27,37 Z M23.55,47.95 C23.4,54.85 19.05,59.65 12.45,59.95 C9.75,60.1 7.8,59.2 6,58.15 C7.95,58.45 10.5,57.7 11.85,56.5 C9.9,56.35 8.7,55.3 8.1,53.65 C8.7,53.8 9.3,53.65 9.75,53.65 C7.95,53.05 6.75,52 6.6,49.6 C7.05,49.9 7.65,50.05 8.25,50.05 C6.9,49.3 6,46.45 7.05,44.65 C9,46.75 11.4,48.55 15.3,48.85 C14.25,44.65 19.95,42.4 22.2,45.25 C23.25,45.1 24,44.65 24.75,44.35 C24.45,45.4 23.85,46 23.1,46.6 C23.85,46.45 24.6,46.3 25.2,46 C25.05,46.75 24.3,47.35 23.55,47.95 L23.55,47.95 Z" id="icon-twitter"></path>
                </g>
            </g>
        </g>
    </g>
</svg>