<svg xmlns="http://www.w3.org/2000/svg" width="25" height="30" viewBox="0 0 25 30">
    <path fill="#FFC700" fill-rule="nonzero" d="M5 14h10v-4H7V9a9 9 0 1 1 18 0v1h-8v4h8v12a4 4 0 1 1-8 0h-2.341A6 6 0 0 1 3 24V14a3 3 0 0 0-3-3V9a5 5 0 0 1 5 5zm0 5.528V16h18v6.535A3.998 3.998 0 0 0 17.535 24H15a6 6 0 0 0-10-4.472zm8.097-16.94C10.68 3.608 9 5.804 9 8h3.021c.09-2.103.465-3.996 1.076-5.412zM14 8c0-3 1-6 2-6s2 3 2 6h-4zm4.903-5.412C21.32 3.608 23 5.804 23 8h-3.021c-.09-2.103-.465-3.996-1.076-5.412zM9 28a4 4 0 1 1 0-8 4 4 0 0 1 0 8zm12 0a2 2 0 1 1 0-4 2 2 0 0 1 0 4z"/>
</svg>
