<svg xmlns="http://www.w3.org/2000/svg" width="66" height="66" viewBox="0 0 66 66">
    <path fill="#FFC700" fill-rule="nonzero" d="M66 33C66 14.775 51.225 0 33 0S0 14.775 0 33s14.775 33 33 33 33-14.775 33-33zM33.5 62C17.76 62 5 49.24 5 33.5S17.76 5 33.5 5 62 17.76 62 33.5 49.24 62 33.5 62zM33 45c6.627 0 12-5.373 12-12s-5.373-12-12-12-12 5.373-12 12 5.373 12 12 12zm0-5a7 7 0 1 1 0-14 7 7 0 0 1 0 14zm-3.24-25l4.24-.76-.76-4.24-4.24.76.76 4.24zM15 17.763L17.763 22 22 19.237 19.237 15 15 17.763zM10.533 34L15 32.467 13.467 28 9 29.533 10.533 34zM13 45.98L16.98 48 19 44.02 15.02 42 13 45.98zM26.714 55L31 54.286 30.286 50 26 50.714 26.714 55zM39 54l4 2 2-4-4-2-2 4zm11.405-9L55 43.595 53.595 39 49 40.405 50.405 45zM51 30.5l4.5 1.5 1.5-4.5-4.5-1.5-1.5 4.5zM45.644 19L50 17.356 48.356 13 44 14.644 45.644 19z"/>
</svg>
