<svg xmlns="http://www.w3.org/2000/svg" width="33" height="39" viewBox="0 0 33 39">
    <path fill="#A06BFF" fill-rule="nonzero" d="M6.6 18.2h13.2V13H9.24v-1.3C9.24 5.238 14.559 0 21.12 0 27.681 0 33 5.238 33 11.7V13H22.44v5.2H33V33.8c0 2.872-2.364 5.2-5.28 5.2-2.916 0-5.28-2.328-5.28-5.2h-3.09c-1.088 3.03-4.022 5.2-7.47 5.2-4.374 0-7.92-3.492-7.92-7.8v-13c0-2.154-1.773-3.9-3.96-3.9v-2.6c3.645 0 6.6 2.91 6.6 6.5zm0 7.186V20.8h23.76v8.496a5.318 5.318 0 0 0-2.64-.696 5.293 5.293 0 0 0-4.574 2.6H19.8c0-4.308-3.546-7.8-7.92-7.8a7.96 7.96 0 0 0-5.28 1.986zM17.288 3.365c-3.19 1.324-5.408 4.18-5.408 7.035h3.988c.119-2.733.613-5.194 1.42-7.035zM18.48 10.4c0-3.9 1.32-7.8 2.64-7.8s2.64 3.9 2.64 7.8h-5.28zm6.472-7.035c3.19 1.324 5.408 4.18 5.408 7.035h-3.988c-.119-2.733-.613-5.194-1.42-7.035zM11.88 36.4c-2.916 0-5.28-2.328-5.28-5.2 0-2.872 2.364-5.2 5.28-5.2 2.916 0 5.28 2.328 5.28 5.2 0 2.872-2.364 5.2-5.28 5.2zm15.84 0c-1.458 0-2.64-1.164-2.64-2.6 0-1.436 1.182-2.6 2.64-2.6 1.458 0 2.64 1.164 2.64 2.6 0 1.436-1.182 2.6-2.64 2.6z"/>
</svg>
